<?xml version="1.0" encoding="utf-8"?>
<!-- Generator: Adobe Illustrator 17.0.0, SVG Export Plug-In . SVG Version: 6.00 Build 0)  -->
<!DOCTYPE svg PUBLIC "-//W3C//DTD SVG 1.1//EN" "http://www.w3.org/Graphics/SVG/1.1/DTD/svg11.dtd">
<svg version="1.1" id="Capa_1" xmlns="http://www.w3.org/2000/svg" xmlns:xlink="http://www.w3.org/1999/xlink" x="0px" y="0px"
	 width="720px" height="738px" viewBox="0 0 720 738" enable-background="new 0 0 720 738" xml:space="preserve">
<g>
	<rect x="36" y="36" fill="none" stroke="#161616" stroke-width="18" stroke-miterlimit="10" width="645.622" height="659"/>
	<g>
		<g>
			
				<text transform="matrix(0.9788 0 -0.205 0.9788 69.973 273.2008)" fill="#161616" font-family="'Cantarell-Bold'" font-size="165.9899" letter-spacing="62.324">YEIK</text>
			
				<text transform="matrix(1.0628 0 -0.205 0.9788 75.132 431.0277)" fill="#161616" font-family="'Cantarell-Bold'" font-size="165.9903" letter-spacing="50.811">SITE</text>
		</g>
		<g>
			<g>
				<line fill="none" stroke="#161616" stroke-miterlimit="10" x1="89.811" y1="493" x2="627.811" y2="493"/>
				<line fill="none" stroke="#161616" stroke-miterlimit="10" x1="89.811" y1="585" x2="627.811" y2="585"/>
			</g>
			<g>
				
					<text transform="matrix(1 0 0 1 90.9606 534.7109)" fill="#161616" font-family="'Cantarell-Regular'" font-size="29.2813" letter-spacing="39">the web as</text>
				
					<text transform="matrix(1 0 0 1 90.9606 569.1465)" fill="#161616" font-family="'Cantarell-Regular'" font-size="30.8779" letter-spacing="67">you are</text>
			</g>
		</g>
	</g>
</g>
<g>
	<rect x="-675.683" y="36" fill="none" stroke="#FFFFFF" stroke-width="18" stroke-miterlimit="10" width="645.622" height="659"/>
	<g>
		<g>
			
				<text transform="matrix(0.9788 0 -0.205 0.9788 -641.7097 273.2008)" fill="#FFFFFF" font-family="'Cantarell-Bold'" font-size="165.9899" letter-spacing="62.324">YEIK</text>
			
				<text transform="matrix(1.0628 0 -0.205 0.9788 -636.5507 431.0277)" fill="#FFFFFF" font-family="'Cantarell-Bold'" font-size="165.9903" letter-spacing="50.811">SITE</text>
		</g>
		<g>
			<g>
				<line fill="none" stroke="#FFFFFF" stroke-miterlimit="10" x1="-621.872" y1="493" x2="-83.872" y2="493"/>
				<line fill="none" stroke="#FFFFFF" stroke-miterlimit="10" x1="-621.872" y1="585" x2="-83.872" y2="585"/>
			</g>
			<g>
				
					<text transform="matrix(1 0 0 1 -620.7222 534.7109)" fill="#FFFFFF" font-family="'Cantarell-Regular'" font-size="29.2813" letter-spacing="39">the web as</text>
				
					<text transform="matrix(1 0 0 1 -620.7222 569.1465)" fill="#FFFFFF" font-family="'Cantarell-Regular'" font-size="30.8779" letter-spacing="67">you are</text>
			</g>
		</g>
	</g>
</g>
</svg>
