<?xml version="1.0" encoding="utf-8"?>
<!-- Generator: Adobe Illustrator 17.0.0, SVG Export Plug-In . SVG Version: 6.00 Build 0)  -->
<!DOCTYPE svg PUBLIC "-//W3C//DTD SVG 1.1//EN" "http://www.w3.org/Graphics/SVG/1.1/DTD/svg11.dtd">
<svg version="1.1" id="Capa_1" xmlns="http://www.w3.org/2000/svg" xmlns:xlink="http://www.w3.org/1999/xlink" x="0px" y="0px"
	 width="1000px" height="1000px" viewBox="0 0 1000 1000" enable-background="new 0 0 1000 1000" xml:space="preserve">
<g>
	<g>
		<polygon fill="none" stroke="#FFFFFF" stroke-width="9" stroke-miterlimit="10" points="541.822,499.698 677.388,499.698 
			812.956,499.698 745.173,368.988 677.388,238.28 609.605,368.988 		"/>
		<polygon fill="none" stroke="#FFFFFF" stroke-width="9" stroke-miterlimit="10" points="458.178,499.698 390.395,368.988 
			322.61,238.28 254.827,368.988 187.044,499.698 322.61,499.698 		"/>
		<polygon fill="none" stroke="#FFFFFF" stroke-width="9" stroke-miterlimit="10" points="499.999,539.841 364.433,539.841 
			197.67,539.841 348.834,670.549 499.999,801.259 651.165,670.549 802.33,539.841 635.567,539.841 		"/>
		<polygon fill="none" stroke="#FFFFFF" stroke-width="9" stroke-miterlimit="10" points="499.999,481.959 567.784,351.25 
			635.567,220.541 499.999,220.541 364.432,220.541 432.216,351.25 		"/>
	</g>
	<circle fill="#354447" stroke="#FFFFFF" stroke-width="30" stroke-miterlimit="10" cx="500" cy="499.698" r="426.981"/>
	<g>
		<polygon fill="none" stroke="#FFFFFF" stroke-width="15" stroke-miterlimit="10" points="500,539.841 635.567,539.841 
			567.783,666.97 500,794.099 432.216,666.97 364.432,539.841 		"/>
		<polygon fill="none" stroke="#FFFFFF" stroke-width="15" stroke-miterlimit="10" points="677.389,499.698 541.821,499.698 
			609.605,368.989 677.389,238.28 745.172,368.989 812.956,499.698 		"/>
		<polygon fill="none" stroke="#FFFFFF" stroke-width="15" stroke-miterlimit="10" points="322.611,499.698 187.043,499.698 
			254.827,368.989 322.611,238.28 390.394,368.989 458.178,499.698 		"/>
		<polygon fill="none" stroke="#FFFFFF" stroke-width="15" stroke-miterlimit="10" points="500,539.841 802.33,539.841 
			651.165,670.55 500,801.259 348.834,670.55 197.669,539.841 		"/>
		<polygon fill="none" stroke="#FFFFFF" stroke-width="15" stroke-miterlimit="10" points="500,220.541 635.567,220.541 
			567.783,351.25 500,481.959 432.216,351.25 364.432,220.541 		"/>
	</g>
</g>
</svg>
