<?xml version="1.0" encoding="utf-8"?>
<!-- Generator: Adobe Illustrator 17.0.0, SVG Export Plug-In . SVG Version: 6.00 Build 0)  -->
<!DOCTYPE svg PUBLIC "-//W3C//DTD SVG 1.1//EN" "http://www.w3.org/Graphics/SVG/1.1/DTD/svg11.dtd">
<svg version="1.1" id="Capa_1" xmlns="http://www.w3.org/2000/svg" xmlns:xlink="http://www.w3.org/1999/xlink" x="0px" y="0px"
	 width="1000px" height="1000px" viewBox="0 0 1000 1000" enable-background="new 0 0 1000 1000" xml:space="preserve">
<g>
	<polygon fill="#C5494B" stroke="#862D28" stroke-width="31" stroke-miterlimit="10" points="99.153,268.571 500,37.141 
		900.847,268.571 900.847,731.429 500,962.859 99.153,731.429 	"/>
	<g>
		<rect x="149.306" y="442.067" fill="#862D28" width="707.099" height="38.172"/>
		<rect x="149.306" y="660.195" fill="#862D28" width="707.099" height="38.172"/>
		<rect x="774.606" y="412.983" fill="#862D28" width="43.626" height="310.833"/>
		<rect x="629.188" y="412.983" fill="#862D28" width="43.626" height="310.833"/>
		<rect x="483.769" y="412.983" fill="#862D28" width="43.626" height="310.833"/>
		<rect x="338.35" y="412.983" fill="#862D28" width="43.626" height="310.833"/>
		<rect x="192.931" y="412.983" fill="#862D28" width="43.626" height="310.833"/>
	</g>
	<g>
		<g>
			<polygon fill="none" stroke="#FFFFFF" stroke-width="9" stroke-miterlimit="10" points="520.24,341.698 585.849,341.698 
				651.458,341.698 618.654,278.44 585.849,215.182 553.044,278.44 			"/>
			<polygon fill="none" stroke="#FFFFFF" stroke-width="9" stroke-miterlimit="10" points="479.76,341.698 446.955,278.44 
				414.15,215.182 381.346,278.44 348.542,341.698 414.15,341.698 			"/>
			<polygon fill="none" stroke="#FFFFFF" stroke-width="9" stroke-miterlimit="10" points="500,361.126 434.391,361.126 
				353.684,361.126 426.842,424.383 500,487.642 573.158,424.383 646.316,361.126 565.609,361.126 			"/>
			<polygon fill="none" stroke="#FFFFFF" stroke-width="9" stroke-miterlimit="10" points="500,333.113 532.805,269.855 
				565.609,206.597 500,206.597 434.39,206.597 467.195,269.855 			"/>
		</g>
		<circle fill="#354447" stroke="#FFFFFF" stroke-width="16" stroke-miterlimit="10" cx="500" cy="341.698" r="206.642"/>
		<g>
			<polygon fill="none" stroke="#FFFFFF" stroke-width="9" stroke-miterlimit="10" points="500,361.126 565.609,361.126 
				532.804,422.651 500,484.176 467.195,422.651 434.391,361.126 			"/>
			<polygon fill="none" stroke="#FFFFFF" stroke-width="9" stroke-miterlimit="10" points="585.849,341.698 520.24,341.698 
				553.044,278.44 585.849,215.182 618.654,278.44 651.458,341.698 			"/>
			<polygon fill="none" stroke="#FFFFFF" stroke-width="9" stroke-miterlimit="10" points="414.151,341.698 348.541,341.698 
				381.346,278.44 414.151,215.182 446.955,278.44 479.76,341.698 			"/>
			<polygon fill="none" stroke="#FFFFFF" stroke-width="9" stroke-miterlimit="10" points="500,361.126 646.316,361.126 
				573.158,424.384 500,487.642 426.842,424.384 353.684,361.126 			"/>
			<polygon fill="none" stroke="#FFFFFF" stroke-width="9" stroke-miterlimit="10" points="500,206.597 565.609,206.597 
				532.804,269.855 500,333.113 467.195,269.855 434.391,206.597 			"/>
		</g>
	</g>
</g>
</svg>
